PathFileType	3	(X/Y/Z)	RCH0000002 BBF 09.c3d
DataRate	CameraRate	NumFrames	NumMarkers	Units	OrigDataRate	OrigDataStartFrame	OrigNumFrames
100.0	100.0	17	23	mm	100.0	378	352
Frame#	Time	T2			T10			MAN			LASI			RASI			LPSI			RPSI			LPAT			LKNE			LANK			LMED			LHEE			LTOE			RPAT			RKNE			RANK			RMED			RHEE			RTOE			RTHI			LTHI			RTIB			LTIB			
		X1	Y1	Z1	X2	Y2	Z2	X3	Y3	Z3	X4	Y4	Z4	X5	Y5	Z5	X6	Y6	Z6	X7	Y7	Z7	X8	Y8	Z8	X9	Y9	Z9	X10	Y10	Z10	X11	Y11	Z11	X12	Y12	Z12	X13	Y13	Z13	X14	Y14	Z14	X15	Y15	Z15	X16	Y16	Z16	X17	Y17	Z17	X18	Y18	Z18	X19	Y19	Z19	X20	Y20	Z20	X21	Y21	Z21	X22	Y22	Z22	X23	Y23	Z23	

378	3.770	766.97596	50.17827	956.13784	792.52952	35.46786	763.71207	900.86055	67.33963	928.32161	911.49649	87.93523	619.76670	877.29057	-85.74900	633.04385	792.86943	66.67499	669.61746	781.15322	-4.68406	678.74945	989.70581	1.51902	388.94838	979.33107	66.75439	337.22123	944.19110	94.43455	69.96525	928.20857	25.13661	81.86554	893.97305	63.53289	95.10490	983.58892	48.37044	68.01955	794.15410	-20.58805	336.50854	733.61787	-65.94592	325.35973	572.42471	-50.87703	99.15119	567.93148	12.98925	124.23508	550.21254	-29.68965	155.95787	595.04620	-5.20012	66.95431	780.16769	-142.26477	422.03736	951.61755	151.58226	449.31062	660.10622	-126.82653	226.13338	983.36470	137.90452	229.31287	
379	3.780	778.03750	50.50312	953.50868	805.69836	33.39130	761.82376	912.29931	68.03140	926.82543	922.52055	88.02267	619.23959	891.00221	-86.03296	629.37466	804.73013	64.08179	669.23881	794.19526	-7.43546	677.15683	997.14595	3.47011	385.80342	985.29370	68.36534	334.35358	945.34644	94.95642	67.46168	929.28744	25.82207	80.39935	895.53854	64.35102	93.65245	984.64708	48.68137	65.76027	808.27867	-21.22294	332.41595	747.23984	-66.28313	322.01117	580.74640	-52.09689	100.08178	577.06771	11.81779	125.31732	560.74745	-30.82711	157.64256	601.67863	-6.47372	66.82996	793.96186	-142.47077	418.73643	958.97441	152.84428	447.09186	671.91931	-127.53460	224.76813	987.49383	139.05581	226.02956	
380	3.790	788.98709	50.52265	951.56873	818.53416	31.09555	760.59627	923.49449	68.64069	925.83389	932.87494	88.52956	619.40077	904.76338	-85.96132	626.20099	816.05394	61.28407	669.50064	806.99260	-10.38468	676.10543	1004.08758	6.60097	383.43012	990.40608	71.00012	332.29766	945.94563	96.30989	65.68807	929.89551	27.33540	79.69463	896.59139	65.99373	92.97869	985.13847	49.83859	64.13121	823.34308	-21.26294	328.74043	762.07799	-66.34413	318.80133	590.33305	-53.52699	101.39631	587.24218	10.45127	126.67655	572.43596	-32.19288	159.58327	609.53744	-7.96194	67.14112	809.04302	-142.33085	415.60283	965.13698	154.94463	445.68917	685.30574	-128.14690	223.55336	990.80031	141.23122	223.47505	
381	3.800	799.79667	50.19774	950.40426	830.96720	28.65358	760.08940	934.40113	69.14705	925.41689	942.58056	89.43590	620.25282	918.47682	-85.52254	623.66059	826.84992	58.40219	670.41387	819.49351	-13.40430	675.64956	1010.43252	10.67503	381.79026	994.65316	74.46971	331.03072	946.23240	98.26798	64.58094	930.25175	29.45646	79.66335	897.33017	68.24534	92.97141	985.30514	51.61925	63.08570	839.32005	-20.73822	325.65300	778.08632	-66.14341	315.88439	601.23114	-55.16501	103.15661	598.52256	8.90904	128.34474	585.26238	-33.73799	161.81960	618.77104	-9.69444	67.94868	825.30641	-141.86449	412.81380	970.20962	157.72106	445.09870	700.17923	-128.67250	222.63523	993.37728	144.22143	221.61749	
382	3.810	810.44209	49.50429	950.06452	842.94617	26.14543	760.32733	944.98499	69.53529	925.61897	951.68190	90.70485	621.76008	932.05170	-84.71948	621.86347	837.14981	55.55894	671.95819	831.66200	-16.36556	675.81729	1016.10119	15.40532	380.80198	998.04069	78.54068	330.48106	946.36272	100.56486	64.04823	930.51644	31.92208	80.18478	897.88477	70.82882	93.49311	985.32355	53.77678	62.54968	856.15736	-19.72213	323.30407	795.18179	-65.71793	313.40984	613.46206	-57.00690	105.39130	610.96359	7.21026	130.32603	599.19130	-35.41284	164.36368	629.50539	-11.69851	69.28100	842.59517	-141.11362	410.54733	974.32950	160.97661	445.25982	716.40338	-129.13383	222.15802	995.26995	147.77180	220.38813	
383	3.820	820.90486	48.43589	950.55866	854.43911	23.65220	761.29723	955.22520	69.79611	926.45488	960.24032	92.28669	623.85301	945.40782	-83.56861	620.88310	847.00140	52.86906	674.08283	843.47705	-19.14892	676.60727	1021.04491	20.48065	380.35795	1000.60478	82.95421	330.54383	946.41585	102.92590	63.98754	930.79552	34.45564	81.12388	898.32738	73.43984	94.40274	985.30848	56.06546	62.43462	873.78033	-18.32585	321.81129	813.24937	-65.12596	311.51029	627.02410	-59.04800	108.08848	624.60402	5.37078	132.59298	614.17365	-37.17391	167.19437	641.83508	-13.99633	71.12862	860.71004	-140.14108	408.96697	977.65699	164.49889	446.06679	733.80683	-129.56726	222.24814	996.49414	151.60623	219.69770	
384	3.830	831.17336	47.00520	951.85560	865.43304	21.24999	762.95062	965.11595	69.92625	927.90729	968.32634	94.12338	626.43500	958.47867	-82.09823	620.75024	856.46088	50.42916	676.70947	854.93080	-21.65377	677.98761	1025.25477	25.59633	380.34251	1002.41689	87.44912	331.09753	946.41429	105.09708	64.30084	931.15065	36.79727	82.34849	898.68980	75.78359	95.57375	985.32353	58.26322	62.64894	892.09725	-16.68852	321.25063	832.15073	-64.44316	310.29023	641.89588	-61.28407	111.19339	639.46419	3.40064	135.08688	630.15329	-38.98962	170.25592	655.81679	-16.60233	73.44351	879.42393	-139.02691	408.20678	980.36359	168.08049	447.38434	752.20226	-130.02128	222.99868	997.05864	155.45334	219.45063	
385	3.840	841.24344	45.24398	953.88657	875.93229	19.00443	765.20720	974.66703	69.92838	929.92674	976.01178	96.15311	629.39075	971.21335	-80.34582	621.45012	865.58541	48.30956	679.73709	866.02597	-23.80623	679.89690	1028.76575	30.48492	380.64474	1003.58258	91.78636	332.01820	946.34723	106.87035	64.90319	931.61162	38.73103	83.74245	898.98225	77.60933	96.90525	985.39510	60.19042	63.10652	911.00675	-14.96419	321.65176	851.73570	-63.75629	309.81731	658.04068	-63.71199	114.61193	655.54444	1.30243	137.72251	647.07280	-40.84431	173.46173	671.46573	-19.52138	76.14316	898.49985	-137.86218	408.35834	982.61838	171.53762	449.06439	771.40592	-130.55216	224.45716	996.98528	159.07216	219.55515	
386	3.850	851.11839	43.20156	956.55019	885.95605	16.96630	767.96077	983.90315	69.81042	932.43406	983.36278	98.31425	632.59527	983.57715	-78.35519	622.92343	874.42685	46.54894	683.04806	876.77299	-25.56404	682.24748	1031.65526	34.94175	381.16591	1004.23392	95.77091	333.18954	946.19258	108.10259	65.72538	932.18842	40.10570	85.21341	899.20953	78.73846	98.32563	985.52674	61.72304	63.73167	930.40595	-13.30724	322.99830	871.85464	-63.15486	310.11763	675.41082	-66.33024	118.21970	672.82467	-0.92923	140.39658	664.87777	-42.74004	176.70261	688.75583	-22.74803	79.11933	917.70968	-136.74101	409.46210	984.57446	174.72466	450.96148	791.25488	-131.21772	226.61886	996.32240	162.27383	219.92901	
387	3.860	860.80830	40.94202	959.71960	895.53535	15.16881	771.08666	992.86201	69.58463	935.32501	990.43475	100.54831	635.92243	995.55090	-76.17348	625.07084	883.02731	45.15238	686.51518	887.18708	-26.91820	684.93056	1034.03610	38.84096	381.82186	1004.51735	99.26782	334.50881	945.93412	108.72602	66.71164	932.88078	40.84688	86.69502	899.38218	79.08234	99.78947	985.71145	62.79893	64.46086	950.19794	-11.85792	325.23278	892.37001	-62.72189	311.17549	693.95165	-69.13892	121.87530	691.26531	-3.30700	142.99859	683.51926	-44.69568	179.85839	707.62352	-26.26719	82.24971	936.85134	-135.75132	411.50421	986.35752	177.54278	452.94503	811.61940	-132.07038	229.42752	995.14998	164.93646	220.50143	
388	3.870	870.32880	38.54028	963.25090	904.70994	13.62653	774.44995	1001.59147	69.26645	938.47672	997.26943	102.80188	639.25252	1007.12933	-73.84875	627.76068	891.41686	44.09292	690.00899	897.28578	-27.89138	687.82284	1036.04449	42.13923	382.54200	1004.57969	102.20945	335.88929	945.57196	108.74916	67.81495	933.68422	40.95901	88.14463	899.52152	78.64782	101.27041	985.94047	63.41684	65.24215	970.29712	-10.72954	328.26536	913.16537	-62.52466	312.93789	713.60482	-72.13947	125.43595	710.80991	-5.84903	145.42236	702.95453	-46.74354	182.81097	727.97469	-30.05592	85.41119	955.76225	-134.96559	414.41943	988.05891	179.94205	454.90761	832.40933	-133.15062	232.78334	993.57724	167.01081	221.21248	
389	3.880	879.69967	36.07745	966.99225	913.52518	12.33603	777.91376	1010.14603	68.87306	941.75552	1003.89440	105.02753	642.47836	1018.31875	-71.42800	630.83886	899.61346	43.31621	693.40485	907.08709	-28.53346	690.79400	1037.82517	44.86741	383.26682	1004.55536	104.59321	337.26042	945.12578	108.24830	68.99205	934.59276	40.51734	89.53803	899.65914	77.52964	102.75252	986.20822	63.62864	66.03339	990.63169	-9.99834	331.98507	934.15051	-62.60666	315.32276	734.31085	-75.33394	128.77291	731.38918	-8.57617	147.57647	723.14675	-48.92410	185.45659	749.69380	-34.08584	88.49246	974.32741	-134.43295	418.09937	989.73431	181.91727	456.76893	853.57427	-134.48186	236.55734	991.73450	168.51641	222.01121	
390	3.890	888.94316	33.63582	970.79282	922.02938	11.27804	781.34716	1018.58301	68.42202	945.02534	1010.32486	107.18382	645.50962	1029.13427	-68.95603	634.14007	907.62481	42.74739	696.58949	916.60822	-28.91516	693.71464	1039.51596	47.11218	383.94557	1004.55677	106.47061	338.56669	944.63196	107.35095	70.20007	935.59906	39.65149	90.86313	899.83217	75.89129	104.22272	986.51357	63.52596	66.80009	1011.14246	-9.69663	336.27198	955.26233	-62.98157	318.22984	756.01117	-78.72354	131.78451	752.92624	-11.50839	149.39215	744.06412	-51.27942	187.71552	772.65418	-38.32550	91.40428	992.48176	-134.17343	422.40478	991.40836	183.49906	458.47607	875.09859	-136.06701	240.60925	989.76174	169.52894	222.85335	
391	3.900	898.08250	31.29409	974.51110	930.27154	10.42077	784.63193	1026.95882	67.92987	948.15598	1016.56716	109.23479	648.27552	1039.59709	-66.47496	637.49926	915.45161	42.29955	699.46645	925.86516	-29.12023	696.46376	1041.23423	48.99222	384.53486	1004.66909	107.93044	339.76628	944.13629	106.21392	71.39538	936.69301	38.52325	92.11387	900.07635	73.93761	105.66571	986.85851	63.22350	67.51381	1031.77848	-9.80938	341.00866	976.46149	-63.63009	321.55245	778.64997	-82.30657	134.40469	775.34232	-14.66073	150.82764	765.67901	-53.84644	189.53770	796.72791	-42.74166	94.08626	1010.20716	-134.17531	427.17993	993.08376	184.74185	460.00064	896.99253	-137.88685	244.80590	987.79588	170.16172	223.69968	
392	3.910	907.14064	29.12303	978.02189	938.29956	9.72387	787.66797	1035.32570	67.41093	951.03079	1022.62366	111.14908	650.72600	1049.73201	-64.02438	640.76234	923.09165	41.88241	701.96033	934.87289	-29.23746	698.93553	1043.06759	50.63340	384.99834	1004.94898	109.07937	340.82946	943.68467	104.99959	72.53488	937.86014	37.30237	93.28567	900.41905	71.88384	107.06198	987.24534	62.84134	68.15121	1052.49005	-10.27442	346.08961	997.72577	-64.49975	325.18840	802.17598	-86.07560	136.60626	798.56201	-18.03924	151.86870	787.96738	-56.65100	190.90380	821.79447	-47.29902	96.50926	1027.52488	-134.39568	432.26707	994.75256	185.71119	461.33403	919.28139	-139.89991	249.03667	985.95860	170.54455	224.51522	
393	3.920	916.13934	27.18190	981.22165	946.15905	9.14275	790.37709	1043.72915	66.87624	953.55286	1028.49801	112.89912	652.83156	1059.56559	-61.64173	643.79533	930.54422	41.41074	704.01952	943.64614	-29.35303	701.04469	1045.06988	52.14765	385.30718	1005.42675	110.02360	341.73734	943.31440	103.85421	73.57885	939.08060	36.14416	94.37288	900.87396	69.92645	108.38869	987.67374	62.48905	68.69390	1073.22031	-10.98613	351.42765	1019.04118	-65.50771	329.04888	826.54399	-90.01410	138.39849	822.51736	-21.63721	152.52555	810.90844	-59.70336	191.82191	847.74683	-51.95801	98.67361	1044.48521	-134.76401	437.51926	996.40720	186.47230	462.48183	941.99430	-142.04354	253.22356	984.34618	170.80347	225.26957	
394	3.930	925.09869	25.51596	984.03202	953.89247	8.63263	792.70500	1052.20633	66.33292	955.64955	1034.20038	114.46041	654.58197	1069.12490	-59.36293	646.49134	937.81404	40.81143	705.61727	952.20056	-29.54388	702.73022	1047.26254	53.61804	385.44076	1006.11086	110.85413	342.48075	943.04776	102.89117	74.49458	940.32949	35.17184	95.36818	901.43882	68.22015	109.62259	988.13865	62.25326	69.12888	1093.89716	-11.80268	356.95653	1040.39236	-66.54631	333.06394	851.71593	-94.09277	139.81996	847.14975	-25.43225	152.82700	834.48424	-62.99564	192.32073	874.49440	-56.67081	100.60356	1061.15543	-135.18833	442.81005	998.04943	187.08132	463.45837	965.15409	-144.23615	257.32435	983.02300	171.04438	225.93824	
